<svg id="svg" version="1.1" xmlns="http://www.w3.org/2000/svg" xmlns:xlink="http://www.w3.org/1999/xlink" width="400" height="400" viewBox="0, 0, 400,400"><g id="svgg"><path id="path0" d="M75.830 219.724 C 74.939 220.274,70.789 224.291,70.796 224.596 C 70.833 226.360,70.772 226.576,70.400 226.000 C 70.086 225.515,70.011 225.572,70.006 226.300 C 70.003 226.795,69.809 227.200,69.576 227.200 C 69.343 227.200,69.251 227.360,69.372 227.555 C 69.493 227.750,69.323 228.132,68.996 228.404 C 68.668 228.676,68.400 229.146,68.400 229.449 C 68.400 229.752,68.220 230.000,68.000 230.000 C 67.780 230.000,67.600 230.461,67.600 231.024 C 67.600 231.587,67.456 231.958,67.280 231.849 C 67.104 231.740,66.724 232.448,66.437 233.423 C 66.124 234.480,65.742 235.088,65.489 234.931 C 65.221 234.766,65.161 234.921,65.325 235.350 C 65.487 235.771,65.361 236.117,64.993 236.258 C 64.667 236.383,64.400 236.826,64.400 237.243 C 64.400 237.659,64.220 238.000,64.000 238.000 C 63.780 238.000,63.621 238.135,63.647 238.300 C 63.790 239.204,63.548 240.015,63.200 239.800 C 62.980 239.664,62.800 239.825,62.800 240.159 C 62.800 240.492,62.274 241.657,61.631 242.747 C 60.988 243.837,60.568 244.835,60.698 244.965 C 60.827 245.094,60.713 245.200,60.443 245.200 C 60.173 245.200,60.055 245.365,60.180 245.568 C 60.305 245.770,60.136 246.207,59.804 246.539 C 59.472 246.871,59.200 247.336,59.200 247.571 C 59.200 247.807,59.020 248.000,58.800 248.000 C 58.580 248.000,58.400 248.191,58.400 248.424 C 58.400 248.657,58.593 248.728,58.830 248.582 C 59.067 248.435,59.031 248.682,58.749 249.132 C 58.469 249.581,58.096 249.859,57.920 249.751 C 57.744 249.642,57.600 249.923,57.600 250.376 C 57.600 250.829,57.409 251.200,57.176 251.200 C 56.943 251.200,56.844 251.348,56.956 251.529 C 57.068 251.709,56.898 252.360,56.580 252.974 C 55.899 254.286,55.745 262.000,56.400 262.000 C 56.620 262.000,56.800 262.360,56.800 262.800 C 56.800 263.240,56.980 263.600,57.200 263.600 C 57.420 263.600,57.603 264.005,57.606 264.500 C 57.611 265.228,57.686 265.285,58.000 264.800 C 58.332 264.286,58.389 264.299,58.394 264.891 C 58.397 265.271,58.848 265.875,59.397 266.235 C 59.945 266.594,60.294 267.048,60.173 267.244 C 60.052 267.440,60.233 267.600,60.576 267.600 C 60.919 267.600,61.200 267.780,61.200 268.000 C 61.200 268.220,61.560 268.400,62.000 268.400 C 62.440 268.400,62.803 268.625,62.806 268.900 C 62.810 269.233,62.942 269.200,63.200 268.800 C 63.413 268.470,63.591 268.400,63.594 268.644 C 63.603 269.288,69.541 269.348,72.199 268.730 C 73.446 268.440,74.400 267.997,74.400 267.709 C 74.400 267.429,74.535 267.197,74.700 267.194 C 75.095 267.185,77.600 264.971,77.600 264.630 C 77.600 264.357,78.095 263.699,79.300 262.371 C 79.685 261.947,80.000 261.330,80.000 261.000 C 80.000 260.670,80.180 260.400,80.400 260.400 C 80.620 260.400,80.800 260.040,80.800 259.600 C 80.800 259.160,80.980 258.800,81.200 258.800 C 81.420 258.800,81.604 258.395,81.609 257.900 C 81.614 257.405,81.970 256.550,82.400 256.000 C 82.830 255.450,83.189 254.640,83.197 254.200 C 83.210 253.536,83.278 253.502,83.600 254.000 C 83.914 254.485,83.989 254.428,83.994 253.700 C 83.997 253.205,84.199 252.800,84.443 252.800 C 84.686 252.800,84.779 252.523,84.650 252.185 C 84.518 251.841,84.664 251.473,84.981 251.352 C 85.294 251.232,85.452 250.880,85.333 250.570 C 85.214 250.260,85.385 249.904,85.714 249.778 C 86.042 249.652,86.412 249.042,86.535 248.423 C 86.659 247.803,87.031 247.026,87.361 246.696 C 87.692 246.366,87.876 246.009,87.771 245.905 C 87.666 245.800,87.855 245.486,88.190 245.208 C 88.526 244.930,88.800 244.437,88.800 244.113 C 88.800 243.789,89.131 243.046,89.535 242.462 C 89.939 241.878,90.419 241.040,90.600 240.600 C 90.782 240.160,90.971 239.710,91.019 239.600 C 91.068 239.490,91.239 238.997,91.399 238.504 C 91.560 238.012,91.881 237.727,92.113 237.870 C 92.375 238.032,92.440 237.882,92.285 237.477 C 92.147 237.117,92.251 236.589,92.517 236.302 C 92.783 236.015,93.059 235.515,93.130 235.190 C 93.202 234.866,93.427 234.540,93.630 234.467 C 93.834 234.393,94.000 232.448,94.000 230.143 C 94.000 227.451,93.857 226.041,93.600 226.200 C 93.369 226.343,93.200 225.967,93.200 225.312 C 93.200 224.635,92.877 223.944,92.400 223.600 C 91.960 223.283,91.600 222.715,91.600 222.339 C 91.600 221.962,91.240 221.540,90.800 221.400 C 90.360 221.260,89.999 220.933,89.997 220.673 C 89.988 219.266,77.881 218.455,75.830 219.724 M192.753 230.697 C 192.727 230.863,192.727 231.135,192.753 231.300 C 192.779 231.465,192.620 231.600,192.400 231.600 C 192.180 231.600,192.000 231.960,192.000 232.400 C 192.000 232.840,191.820 233.200,191.600 233.200 C 191.380 233.200,191.200 233.436,191.200 233.725 C 191.200 234.014,190.840 234.995,190.400 235.906 C 189.960 236.816,189.600 237.761,189.600 238.004 C 189.600 238.248,189.420 238.336,189.200 238.200 C 188.980 238.064,188.800 238.323,188.800 238.776 C 188.800 239.229,188.620 239.600,188.400 239.600 C 188.180 239.600,188.000 239.960,188.000 240.400 C 188.000 240.840,187.820 241.200,187.600 241.200 C 187.380 241.200,187.200 241.470,187.200 241.800 C 187.200 242.130,187.020 242.400,186.800 242.400 C 186.580 242.400,186.400 242.760,186.400 243.200 C 186.400 243.640,186.254 244.000,186.075 244.000 C 185.896 244.000,185.502 244.630,185.200 245.400 C 184.898 246.170,184.519 246.800,184.357 246.800 C 184.196 246.800,183.948 247.328,183.806 247.972 C 183.664 248.617,183.290 249.359,182.974 249.621 C 182.658 249.883,182.400 250.346,182.400 250.649 C 182.400 250.952,182.254 251.200,182.076 251.200 C 181.429 251.200,180.758 255.161,180.833 258.541 C 180.874 260.443,181.032 262.000,181.183 262.000 C 181.334 262.000,181.864 262.900,182.361 264.000 C 182.990 265.391,183.499 266.000,184.033 266.000 C 184.455 266.000,184.800 266.267,184.800 266.592 C 184.800 266.918,185.250 267.298,185.800 267.436 C 186.350 267.574,186.800 267.847,186.800 268.043 C 186.800 268.240,187.171 268.400,187.624 268.400 C 188.077 268.400,188.348 268.560,188.228 268.755 C 188.106 268.952,190.048 269.138,192.604 269.174 C 195.578 269.215,197.200 269.089,197.200 268.819 C 197.200 268.588,197.650 268.400,198.200 268.400 C 198.750 268.400,199.200 268.220,199.200 268.000 C 199.200 267.780,199.378 267.600,199.595 267.600 C 200.323 267.600,203.976 263.414,204.221 262.300 C 204.355 261.695,204.614 261.200,204.799 261.200 C 204.983 261.200,205.454 260.345,205.846 259.300 C 206.238 258.255,206.748 257.268,206.979 257.106 C 207.211 256.944,207.231 256.809,207.024 256.806 C 206.816 256.803,206.996 256.517,207.424 256.170 C 207.851 255.824,207.962 255.663,207.670 255.812 C 207.232 256.037,207.231 255.939,207.667 255.242 C 207.956 254.779,208.329 254.400,208.496 254.400 C 208.663 254.400,208.800 253.939,208.800 253.376 C 208.800 252.796,208.973 252.460,209.200 252.600 C 209.420 252.736,209.600 252.477,209.600 252.024 C 209.600 251.571,209.780 251.200,210.000 251.200 C 210.220 251.200,210.400 250.947,210.400 250.638 C 210.400 250.103,211.960 246.823,212.415 246.400 C 212.533 246.290,213.422 244.625,214.389 242.700 C 215.356 240.775,216.305 239.200,216.497 239.200 C 216.690 239.200,216.744 239.032,216.617 238.828 C 216.491 238.623,216.565 238.345,216.783 238.211 C 217.000 238.076,217.469 237.299,217.823 236.483 C 218.177 235.667,218.632 234.687,218.834 234.305 C 219.035 233.923,219.200 233.158,219.200 232.605 L 219.200 231.600 208.974 231.600 C 203.349 231.600,198.444 231.445,198.074 231.255 C 197.143 230.778,192.811 230.323,192.753 230.697 M316.438 233.417 C 316.125 234.478,315.742 235.088,315.489 234.931 C 315.221 234.766,315.161 234.921,315.325 235.350 C 315.487 235.771,315.361 236.117,314.993 236.258 C 314.667 236.383,314.400 236.826,314.400 237.243 C 314.400 237.659,314.220 238.000,314.000 238.000 C 313.780 238.000,313.621 238.135,313.647 238.300 C 313.790 239.204,313.548 240.015,313.200 239.800 C 312.980 239.664,312.800 239.825,312.800 240.159 C 312.800 240.492,312.274 241.657,311.631 242.747 C 310.988 243.837,310.568 244.835,310.698 244.965 C 310.827 245.094,310.713 245.200,310.443 245.200 C 310.173 245.200,310.055 245.365,310.180 245.568 C 310.305 245.770,310.136 246.207,309.804 246.539 C 309.472 246.871,309.200 247.336,309.200 247.571 C 309.200 247.807,309.020 248.000,308.800 248.000 C 308.580 248.000,308.400 248.191,308.400 248.424 C 308.400 248.657,308.593 248.728,308.830 248.582 C 309.067 248.435,309.031 248.682,308.749 249.132 C 308.469 249.581,308.096 249.859,307.920 249.751 C 307.744 249.642,307.600 249.923,307.600 250.376 C 307.600 250.829,307.409 251.200,307.176 251.200 C 306.943 251.200,306.844 251.348,306.956 251.529 C 307.068 251.709,306.898 252.360,306.580 252.974 C 305.899 254.286,305.745 262.000,306.400 262.000 C 306.620 262.000,306.800 262.360,306.800 262.800 C 306.800 263.240,306.980 263.600,307.200 263.600 C 307.420 263.600,307.603 264.005,307.606 264.500 C 307.611 265.228,307.686 265.285,308.000 264.800 C 308.332 264.286,308.389 264.299,308.394 264.891 C 308.397 265.271,308.848 265.875,309.397 266.235 C 309.945 266.594,310.294 267.048,310.173 267.244 C 310.052 267.440,310.233 267.600,310.576 267.600 C 310.919 267.600,311.200 267.780,311.200 268.000 C 311.200 268.220,311.560 268.400,312.000 268.400 C 312.440 268.400,312.803 268.625,312.806 268.900 C 312.810 269.233,312.942 269.200,313.200 268.800 C 313.413 268.470,313.591 268.400,313.594 268.644 C 313.603 269.288,319.541 269.348,322.199 268.730 C 323.446 268.440,324.400 267.997,324.400 267.709 C 324.400 267.429,324.535 267.197,324.700 267.194 C 325.095 267.185,327.600 264.971,327.600 264.630 C 327.600 264.357,328.095 263.699,329.300 262.371 C 329.685 261.947,330.000 261.330,330.000 261.000 C 330.000 260.670,330.180 260.400,330.400 260.400 C 330.620 260.400,330.800 260.040,330.800 259.600 C 330.800 259.160,330.980 258.800,331.200 258.800 C 331.420 258.800,331.604 258.395,331.609 257.900 C 331.614 257.405,331.970 256.550,332.400 256.000 C 332.830 255.450,333.189 254.640,333.197 254.200 C 333.210 253.536,333.278 253.502,333.600 254.000 C 333.914 254.485,333.989 254.428,333.994 253.700 C 333.997 253.205,334.199 252.800,334.443 252.800 C 334.686 252.800,334.779 252.523,334.650 252.185 C 334.518 251.841,334.664 251.473,334.981 251.352 C 335.294 251.232,335.452 250.880,335.333 250.570 C 335.214 250.260,335.385 249.904,335.714 249.778 C 336.042 249.652,336.412 249.042,336.535 248.423 C 336.659 247.803,337.031 247.026,337.361 246.696 C 337.692 246.366,337.876 246.009,337.771 245.905 C 337.666 245.800,337.855 245.486,338.190 245.208 C 338.526 244.930,338.800 244.437,338.800 244.113 C 338.800 243.789,339.131 243.046,339.535 242.462 C 339.939 241.878,340.419 241.040,340.600 240.600 C 340.782 240.160,340.971 239.710,341.019 239.600 C 341.068 239.490,341.239 238.997,341.399 238.504 C 341.560 238.012,341.881 237.727,342.113 237.870 C 342.375 238.032,342.440 237.882,342.285 237.477 C 342.147 237.117,342.251 236.589,342.517 236.302 C 342.783 236.015,343.059 235.515,343.130 235.190 C 343.202 234.866,343.427 234.540,343.630 234.467 C 343.834 234.393,344.000 233.714,344.000 232.957 L 344.000 231.581 330.482 231.610 L 316.963 231.639 316.438 233.417 M140.632 281.148 C 140.514 281.340,139.918 281.597,139.308 281.719 C 137.547 282.073,133.200 286.563,133.200 288.028 C 133.200 288.479,133.020 288.736,132.800 288.600 C 132.580 288.464,132.400 288.633,132.400 288.976 C 132.400 289.319,132.220 289.600,132.000 289.600 C 131.780 289.600,131.600 289.945,131.600 290.367 C 131.600 290.788,131.437 291.193,131.238 291.267 C 131.039 291.340,130.814 291.850,130.738 292.400 C 130.662 292.950,130.240 293.709,129.800 294.087 C 129.360 294.464,129.163 294.779,129.362 294.787 C 129.561 294.794,129.398 295.160,129.000 295.600 C 128.602 296.040,128.422 296.400,128.600 296.400 C 128.778 296.400,128.598 296.760,128.200 297.200 C 127.802 297.640,127.600 298.000,127.752 298.000 C 127.904 298.000,127.803 298.405,127.528 298.900 C 127.253 299.395,127.022 299.942,127.014 300.115 C 127.006 300.288,126.816 300.558,126.592 300.715 C 125.945 301.167,125.163 303.217,125.457 303.692 C 125.615 303.949,125.536 304.008,125.262 303.838 C 124.985 303.667,124.800 303.814,124.800 304.204 C 124.800 304.563,124.260 305.641,123.600 306.600 C 122.940 307.559,122.400 308.537,122.400 308.772 C 122.400 309.007,122.220 309.200,122.000 309.200 C 121.780 309.200,121.600 309.545,121.600 309.967 C 121.600 310.388,121.375 310.824,121.100 310.935 C 120.753 311.075,120.780 311.146,121.189 311.168 C 121.595 311.190,121.501 311.394,120.889 311.823 C 120.400 312.165,120.000 312.705,120.000 313.023 C 120.000 313.340,119.820 313.600,119.600 313.600 C 119.380 313.600,119.200 313.949,119.200 314.376 C 119.200 314.803,119.055 315.243,118.877 315.352 C 117.810 316.012,118.576 325.200,119.698 325.200 C 119.864 325.200,120.000 325.656,120.000 326.213 C 120.000 327.282,122.357 329.999,123.287 330.001 C 123.569 330.002,124.389 330.362,125.110 330.801 C 126.548 331.678,133.847 331.993,134.629 331.211 C 134.842 330.998,135.440 330.758,135.958 330.679 C 137.344 330.468,141.600 326.128,141.600 324.926 C 141.600 324.363,141.773 324.060,142.010 324.206 C 142.235 324.345,142.394 324.311,142.363 324.130 C 142.205 323.222,142.445 322.381,142.800 322.600 C 143.020 322.736,143.200 322.587,143.200 322.269 C 143.200 321.391,144.241 319.574,144.561 319.894 C 144.715 320.049,144.724 319.868,144.580 319.491 C 144.412 319.053,144.548 318.718,144.958 318.561 C 145.311 318.425,145.600 318.047,145.600 317.719 C 145.600 317.392,146.140 316.140,146.800 314.937 C 147.460 313.735,148.000 312.507,148.000 312.209 C 148.000 311.911,148.135 311.607,148.300 311.533 C 148.465 311.460,149.030 310.545,149.556 309.500 C 150.081 308.455,150.666 307.600,150.856 307.600 C 151.045 307.600,151.200 307.227,151.200 306.771 C 151.200 306.316,151.479 305.664,151.820 305.323 C 152.160 304.982,152.542 304.188,152.668 303.558 C 152.794 302.928,153.029 302.494,153.189 302.593 C 153.349 302.692,154.036 301.695,154.715 300.378 C 155.395 299.061,155.746 298.110,155.497 298.264 C 155.247 298.418,155.420 298.015,155.880 297.368 C 156.776 296.110,157.200 288.400,156.374 288.400 C 156.168 288.400,156.000 287.939,156.000 287.376 C 156.000 286.813,155.839 286.452,155.642 286.574 C 155.304 286.783,154.805 286.003,154.576 284.908 C 154.434 284.230,153.346 283.188,153.069 283.465 C 152.944 283.589,152.389 283.335,151.835 282.899 C 151.281 282.463,150.941 281.992,151.080 281.853 C 151.219 281.714,150.853 281.600,150.267 281.600 C 149.680 281.600,149.200 281.420,149.200 281.200 C 149.200 280.703,140.938 280.653,140.632 281.148 M265.108 281.277 C 265.030 281.510,264.614 281.736,264.183 281.779 C 262.983 281.898,261.979 282.443,262.226 282.842 C 262.348 283.039,262.263 283.200,262.038 283.200 C 261.374 283.200,258.421 286.538,258.410 287.300 C 258.405 287.685,258.220 288.000,258.000 288.000 C 257.780 288.000,257.621 288.135,257.647 288.300 C 257.836 289.495,257.557 290.553,257.200 290.000 C 256.886 289.515,256.811 289.572,256.806 290.300 C 256.803 290.795,256.609 291.200,256.376 291.200 C 256.143 291.200,256.055 291.365,256.180 291.568 C 256.305 291.770,256.136 292.207,255.804 292.539 C 255.472 292.871,255.200 293.426,255.200 293.771 C 255.200 294.117,255.009 294.400,254.776 294.400 C 254.543 294.400,254.465 294.581,254.602 294.803 C 254.739 295.024,254.569 295.314,254.225 295.446 C 253.881 295.578,253.600 296.127,253.600 296.666 C 253.600 297.218,253.425 297.539,253.200 297.400 C 252.974 297.261,252.800 297.585,252.800 298.143 C 252.800 298.688,252.665 299.193,252.500 299.267 C 252.060 299.462,250.400 302.778,250.400 303.461 C 250.400 303.784,250.220 303.936,250.000 303.800 C 249.780 303.664,249.600 303.813,249.600 304.132 C 249.600 304.451,248.884 305.936,248.010 307.432 C 247.135 308.929,246.487 310.220,246.568 310.301 C 246.649 310.383,246.288 310.911,245.766 311.475 C 245.243 312.039,244.903 312.643,245.011 312.818 C 245.119 312.993,244.944 313.399,244.623 313.720 C 244.301 314.042,244.148 314.415,244.283 314.550 C 244.418 314.685,244.254 315.111,243.918 315.498 C 243.239 316.279,242.993 324.000,243.647 324.000 C 243.841 324.000,244.000 324.366,244.000 324.813 C 244.000 325.259,244.270 325.729,244.600 325.855 C 244.930 325.982,245.200 326.324,245.200 326.614 C 245.200 327.387,247.783 330.000,248.547 330.000 C 248.906 330.000,249.200 330.180,249.200 330.400 C 249.200 330.620,249.571 330.800,250.024 330.800 C 250.503 330.800,250.737 330.978,250.585 331.225 C 250.403 331.519,251.719 331.595,254.861 331.473 C 260.048 331.271,262.372 330.882,261.541 330.355 C 261.115 330.085,261.142 330.011,261.666 330.006 C 262.941 329.994,266.794 325.596,266.806 324.138 C 266.811 323.515,266.873 323.494,267.200 324.000 C 267.505 324.471,267.589 324.374,267.594 323.549 C 267.597 322.971,267.868 322.276,268.196 322.004 C 268.523 321.732,268.693 321.350,268.572 321.155 C 268.451 320.960,268.500 320.800,268.680 320.800 C 268.860 320.800,269.244 320.421,269.533 319.958 C 269.969 319.261,269.968 319.170,269.530 319.427 C 269.238 319.598,269.349 319.340,269.775 318.854 C 270.202 318.368,270.579 317.587,270.613 317.119 C 270.648 316.651,271.064 315.954,271.538 315.570 C 272.012 315.186,272.400 314.485,272.400 314.012 C 272.400 313.540,272.564 313.254,272.765 313.378 C 272.965 313.502,273.251 312.883,273.400 312.002 C 273.549 311.121,273.834 310.400,274.035 310.400 C 274.236 310.400,274.404 310.175,274.409 309.900 C 274.414 309.625,274.770 308.950,275.200 308.400 C 275.630 307.850,275.986 307.165,275.991 306.879 C 275.996 306.592,276.442 305.707,276.982 304.912 C 277.523 304.117,277.872 303.316,277.759 303.133 C 277.645 302.950,277.743 302.800,277.976 302.800 C 278.209 302.800,278.400 302.429,278.400 301.976 C 278.400 301.523,278.580 301.264,278.800 301.400 C 279.020 301.536,279.200 301.367,279.200 301.024 C 279.200 300.681,279.350 300.400,279.533 300.400 C 279.717 300.400,279.886 300.175,279.910 299.900 C 280.013 298.712,280.282 297.993,280.875 297.319 C 281.630 296.463,281.921 289.445,281.220 289.012 C 280.989 288.869,280.800 288.223,280.800 287.576 C 280.800 286.929,280.659 286.400,280.486 286.400 C 280.314 286.400,279.880 285.905,279.521 285.300 C 278.475 283.532,277.355 282.400,276.653 282.400 C 276.294 282.400,276.000 282.220,276.000 282.000 C 276.000 281.780,275.640 281.600,275.200 281.600 C 274.760 281.600,274.400 281.434,274.400 281.231 C 274.400 280.701,265.285 280.746,265.108 281.277 M76.970 344.160 C 76.229 344.700,75.946 344.780,76.149 344.392 C 76.320 344.066,76.176 344.149,75.830 344.576 C 75.483 345.004,75.200 345.224,75.200 345.067 C 75.200 344.910,74.416 345.551,73.458 346.491 C 72.500 347.431,71.791 348.335,71.882 348.500 C 71.973 348.665,71.869 348.800,71.651 348.800 C 71.293 348.800,70.670 350.090,70.620 350.932 C 70.609 351.115,70.324 351.475,69.987 351.732 C 69.650 351.990,69.128 352.959,68.827 353.887 C 68.527 354.814,68.123 355.476,67.930 355.357 C 67.738 355.238,67.606 355.289,67.637 355.470 C 67.792 356.362,67.526 357.128,66.784 357.925 C 66.336 358.406,66.068 358.800,66.189 358.800 C 66.311 358.800,65.958 359.516,65.405 360.392 C 64.852 361.268,64.400 362.168,64.400 362.392 C 64.400 362.616,64.258 362.800,64.085 362.800 C 63.912 362.800,63.740 363.202,63.703 363.694 C 63.666 364.186,63.448 364.651,63.218 364.727 C 62.988 364.804,62.800 365.122,62.800 365.433 C 62.800 365.745,62.620 366.000,62.400 366.000 C 62.180 366.000,62.000 366.360,62.000 366.800 C 62.000 367.240,61.809 367.600,61.576 367.600 C 61.343 367.600,61.255 367.765,61.380 367.968 C 61.505 368.170,61.329 368.614,60.989 368.953 C 60.650 369.293,60.349 369.713,60.322 369.886 C 60.166 370.881,59.870 371.600,59.618 371.600 C 59.459 371.600,59.118 372.061,58.861 372.625 C 58.604 373.189,58.545 373.558,58.729 373.444 C 58.913 373.330,58.689 374.014,58.232 374.963 C 57.774 375.913,57.323 376.623,57.230 376.541 C 57.136 376.460,56.819 377.069,56.526 377.896 C 55.799 379.946,55.887 387.071,56.642 387.361 C 56.968 387.486,57.081 387.844,56.925 388.250 C 56.748 388.711,56.815 388.838,57.132 388.642 C 57.389 388.483,57.600 388.536,57.600 388.760 C 57.600 388.984,58.095 389.648,58.700 390.234 C 59.305 390.821,59.547 391.161,59.238 390.989 C 58.864 390.781,58.772 390.830,58.962 391.138 C 59.119 391.392,59.517 391.600,59.847 391.600 C 60.177 391.600,60.336 391.780,60.200 392.000 C 60.064 392.220,60.334 392.400,60.800 392.400 C 61.266 392.400,61.536 392.580,61.400 392.800 C 61.264 393.020,61.523 393.200,61.976 393.200 C 62.429 393.200,62.800 393.380,62.800 393.600 C 62.800 393.845,64.675 394.000,67.624 394.000 C 70.737 394.000,72.360 393.858,72.200 393.600 C 72.059 393.372,72.409 393.200,73.016 393.200 C 73.689 393.200,74.504 392.745,75.240 391.958 C 75.878 391.274,76.400 390.852,76.400 391.019 C 76.400 391.186,76.715 390.950,77.100 390.495 C 78.929 388.332,79.175 388.000,78.947 388.000 C 78.812 388.000,78.903 387.758,79.148 387.463 C 79.393 387.168,79.504 386.837,79.394 386.727 C 79.285 386.618,79.556 386.202,79.998 385.802 C 80.439 385.403,80.800 384.834,80.800 384.538 C 80.800 384.242,80.980 384.000,81.200 384.000 C 81.420 384.000,81.600 383.651,81.600 383.224 C 81.600 382.797,81.780 382.336,82.000 382.200 C 82.220 382.064,82.400 381.593,82.400 381.153 C 82.400 380.713,82.580 380.464,82.800 380.600 C 83.024 380.738,83.200 380.429,83.200 379.899 C 83.200 379.378,83.515 378.602,83.900 378.175 C 84.285 377.749,84.661 377.040,84.737 376.600 C 84.812 376.160,85.037 375.740,85.237 375.667 C 85.436 375.593,85.600 375.278,85.600 374.967 C 85.600 374.655,85.751 374.400,85.936 374.400 C 86.121 374.400,86.508 373.686,86.796 372.813 C 87.084 371.941,87.477 371.324,87.670 371.443 C 87.862 371.562,87.994 371.511,87.963 371.330 C 87.814 370.473,88.060 369.684,88.700 368.963 C 89.668 367.874,91.018 365.418,90.458 365.764 C 90.206 365.920,90.000 365.857,90.000 365.624 C 90.000 365.391,90.180 365.200,90.400 365.200 C 90.620 365.200,90.800 364.919,90.800 364.576 C 90.800 364.207,90.988 364.069,91.262 364.238 C 91.534 364.406,91.616 364.349,91.461 364.098 C 91.109 363.529,91.586 362.344,92.052 362.632 C 92.254 362.757,92.394 362.711,92.363 362.530 C 92.191 361.543,92.446 360.781,92.862 361.038 C 93.124 361.200,93.216 361.149,93.075 360.921 C 92.938 360.699,93.084 360.176,93.400 359.759 C 94.112 358.819,94.243 351.798,93.557 351.374 C 93.249 351.183,93.279 350.996,93.657 350.756 C 94.057 350.503,94.068 350.411,93.700 350.406 C 93.425 350.403,93.200 350.029,93.200 349.576 C 93.200 349.123,93.020 348.864,92.800 349.000 C 92.580 349.136,92.394 348.922,92.387 348.524 C 92.374 347.771,91.621 346.565,91.100 346.460 C 90.935 346.427,90.620 346.400,90.400 346.400 C 90.180 346.400,90.000 346.151,90.000 345.846 C 90.000 345.541,89.550 344.997,89.000 344.637 C 88.450 344.276,88.000 344.104,88.000 344.253 C 88.000 344.402,87.685 344.244,87.300 343.901 C 86.149 342.876,78.467 343.070,76.970 344.160 M202.451 343.884 C 202.176 344.177,201.783 344.313,201.576 344.185 C 201.369 344.057,201.200 344.154,201.200 344.400 C 201.200 344.646,201.054 344.757,200.875 344.646 C 200.522 344.428,197.200 347.304,197.200 347.828 C 197.200 348.004,196.827 348.546,196.371 349.031 C 195.915 349.516,195.503 350.176,195.456 350.497 C 195.409 350.817,195.094 351.512,194.755 352.040 C 193.889 353.393,193.459 354.510,193.564 355.140 C 193.613 355.437,193.461 355.562,193.227 355.417 C 192.844 355.180,192.624 355.684,192.753 356.500 C 192.779 356.665,192.620 356.800,192.400 356.800 C 192.180 356.800,192.000 357.160,192.000 357.600 C 192.000 358.040,191.820 358.400,191.600 358.400 C 191.380 358.400,191.200 358.760,191.200 359.200 C 191.200 359.640,191.065 360.001,190.900 360.001 C 190.735 360.002,190.150 360.992,189.600 362.200 C 189.050 363.408,188.465 364.398,188.300 364.399 C 188.135 364.399,188.000 364.760,188.000 365.200 C 188.000 365.640,187.820 366.000,187.600 366.000 C 187.380 366.000,187.200 366.360,187.200 366.800 C 187.200 367.240,187.020 367.600,186.800 367.600 C 186.580 367.600,186.400 367.797,186.400 368.038 C 186.400 368.279,186.064 368.954,185.654 369.538 C 185.244 370.122,184.671 371.320,184.380 372.200 C 184.089 373.080,183.521 374.102,183.116 374.472 C 182.712 374.841,182.407 375.291,182.438 375.472 C 182.586 376.330,182.358 376.821,181.932 376.558 C 181.622 376.366,181.546 376.483,181.708 376.905 C 181.843 377.255,181.693 377.757,181.376 378.020 C 180.674 378.602,180.530 386.643,181.218 386.873 C 181.448 386.949,181.665 387.402,181.701 387.878 C 181.737 388.355,181.909 388.656,182.083 388.549 C 182.257 388.441,182.400 388.646,182.400 389.005 C 182.400 389.755,183.329 390.800,183.995 390.800 C 184.244 390.800,184.336 390.980,184.200 391.200 C 184.064 391.420,184.244 391.600,184.600 391.600 C 184.956 391.600,185.133 391.784,184.994 392.010 C 184.855 392.235,184.889 392.375,185.070 392.321 C 185.540 392.179,188.000 393.335,188.000 393.698 C 188.000 394.158,197.114 394.063,197.400 393.600 C 197.536 393.380,198.012 393.200,198.457 393.200 C 198.902 393.200,199.879 392.570,200.626 391.800 C 201.374 391.030,202.124 390.399,202.293 390.397 C 202.632 390.395,204.082 388.085,204.232 387.308 C 204.284 387.037,204.613 386.530,204.963 386.179 C 205.726 385.417,205.790 385.057,205.100 385.406 C 204.825 385.545,204.886 385.421,205.235 385.130 C 206.125 384.387,206.898 382.832,206.671 382.240 C 206.566 381.966,206.822 381.529,207.240 381.268 C 207.658 381.007,208.000 380.435,208.000 379.997 C 208.000 379.558,208.142 379.200,208.315 379.200 C 208.488 379.200,208.660 378.798,208.697 378.306 C 208.734 377.814,208.952 377.349,209.182 377.273 C 209.412 377.196,209.600 376.878,209.600 376.567 C 209.600 376.255,209.780 376.000,210.000 376.000 C 210.220 376.000,210.400 375.640,210.400 375.200 C 210.400 374.760,210.536 374.400,210.702 374.400 C 210.869 374.400,211.257 373.815,211.565 373.100 C 211.873 372.385,212.457 371.322,212.863 370.738 C 213.268 370.154,213.600 369.289,213.600 368.815 C 213.600 368.341,213.761 368.052,213.958 368.174 C 214.275 368.370,214.706 367.729,214.818 366.896 C 214.839 366.733,215.069 366.330,215.329 366.000 C 216.160 364.942,216.800 363.629,216.800 362.982 C 216.800 362.608,216.988 362.469,217.262 362.638 C 217.556 362.820,217.615 362.747,217.423 362.437 C 217.257 362.169,217.387 361.646,217.710 361.275 C 219.228 359.535,219.833 351.375,218.540 350.083 C 218.239 349.782,218.112 349.342,218.258 349.106 C 218.415 348.851,218.336 348.793,218.062 348.962 C 217.808 349.119,217.578 349.057,217.550 348.824 C 217.391 347.475,216.763 346.400,216.134 346.400 C 215.796 346.400,215.673 346.206,215.838 345.938 C 216.009 345.663,215.949 345.585,215.689 345.745 C 215.451 345.892,214.767 345.560,214.169 345.007 C 213.572 344.453,212.659 344.000,212.142 344.000 C 211.624 344.000,211.200 343.838,211.200 343.639 C 211.200 343.038,203.027 343.266,202.451 343.884 M326.970 344.160 C 326.229 344.700,325.946 344.780,326.149 344.392 C 326.320 344.066,326.176 344.149,325.830 344.576 C 325.483 345.004,325.200 345.224,325.200 345.067 C 325.200 344.910,324.416 345.551,323.458 346.491 C 322.500 347.431,321.791 348.335,321.882 348.500 C 321.973 348.665,321.869 348.800,321.651 348.800 C 321.293 348.800,320.670 350.090,320.620 350.932 C 320.609 351.115,320.324 351.475,319.987 351.732 C 319.650 351.990,319.128 352.959,318.827 353.887 C 318.527 354.814,318.123 355.476,317.930 355.357 C 317.738 355.238,317.606 355.289,317.637 355.470 C 317.792 356.362,317.526 357.128,316.784 357.925 C 316.336 358.406,316.068 358.800,316.189 358.800 C 316.311 358.800,315.958 359.516,315.405 360.392 C 314.852 361.268,314.400 362.168,314.400 362.392 C 314.400 362.616,314.258 362.800,314.085 362.800 C 313.912 362.800,313.740 363.202,313.703 363.694 C 313.666 364.186,313.448 364.651,313.218 364.727 C 312.988 364.804,312.800 365.122,312.800 365.433 C 312.800 365.745,312.620 366.000,312.400 366.000 C 312.180 366.000,312.000 366.360,312.000 366.800 C 312.000 367.240,311.809 367.600,311.576 367.600 C 311.343 367.600,311.255 367.765,311.380 367.968 C 311.505 368.170,311.329 368.614,310.989 368.953 C 310.650 369.293,310.349 369.713,310.322 369.886 C 310.166 370.881,309.870 371.600,309.618 371.600 C 309.459 371.600,309.118 372.061,308.861 372.625 C 308.604 373.189,308.545 373.558,308.729 373.444 C 308.913 373.330,308.689 374.014,308.232 374.963 C 307.774 375.913,307.323 376.623,307.230 376.541 C 307.136 376.460,306.819 377.069,306.526 377.896 C 305.799 379.946,305.887 387.071,306.642 387.361 C 306.968 387.486,307.081 387.844,306.925 388.250 C 306.748 388.711,306.815 388.838,307.132 388.642 C 307.389 388.483,307.600 388.536,307.600 388.760 C 307.600 388.984,308.095 389.648,308.700 390.234 C 309.305 390.821,309.547 391.161,309.238 390.989 C 308.864 390.781,308.772 390.830,308.962 391.138 C 309.119 391.392,309.517 391.600,309.847 391.600 C 310.177 391.600,310.336 391.780,310.200 392.000 C 310.064 392.220,310.334 392.400,310.800 392.400 C 311.266 392.400,311.536 392.580,311.400 392.800 C 311.264 393.020,311.523 393.200,311.976 393.200 C 312.429 393.200,312.800 393.380,312.800 393.600 C 312.800 393.845,314.675 394.000,317.624 394.000 C 320.737 394.000,322.360 393.858,322.200 393.600 C 322.059 393.372,322.409 393.200,323.016 393.200 C 323.689 393.200,324.504 392.745,325.240 391.958 C 325.878 391.274,326.400 390.852,326.400 391.019 C 326.400 391.186,326.715 390.950,327.100 390.495 C 328.929 388.332,329.175 388.000,328.947 388.000 C 328.812 388.000,328.903 387.758,329.148 387.463 C 329.393 387.168,329.504 386.837,329.394 386.727 C 329.285 386.618,329.556 386.202,329.998 385.802 C 330.439 385.403,330.800 384.834,330.800 384.538 C 330.800 384.242,330.980 384.000,331.200 384.000 C 331.420 384.000,331.600 383.651,331.600 383.224 C 331.600 382.797,331.780 382.336,332.000 382.200 C 332.220 382.064,332.400 381.593,332.400 381.153 C 332.400 380.713,332.580 380.464,332.800 380.600 C 333.024 380.738,333.200 380.429,333.200 379.899 C 333.200 379.378,333.515 378.602,333.900 378.175 C 334.285 377.749,334.661 377.040,334.737 376.600 C 334.812 376.160,335.037 375.740,335.237 375.667 C 335.436 375.593,335.600 375.278,335.600 374.967 C 335.600 374.655,335.751 374.400,335.936 374.400 C 336.121 374.400,336.508 373.686,336.796 372.813 C 337.084 371.941,337.477 371.324,337.670 371.443 C 337.862 371.562,337.994 371.511,337.963 371.330 C 337.814 370.473,338.060 369.684,338.700 368.963 C 339.668 367.874,341.018 365.418,340.458 365.764 C 340.206 365.920,340.000 365.857,340.000 365.624 C 340.000 365.391,340.180 365.200,340.400 365.200 C 340.620 365.200,340.800 364.919,340.800 364.576 C 340.800 364.207,340.988 364.069,341.262 364.238 C 341.534 364.406,341.616 364.349,341.461 364.098 C 341.109 363.529,341.586 362.344,342.052 362.632 C 342.254 362.757,342.394 362.711,342.363 362.530 C 342.191 361.543,342.446 360.781,342.862 361.038 C 343.124 361.200,343.216 361.149,343.075 360.921 C 342.938 360.699,343.084 360.176,343.400 359.759 C 344.112 358.819,344.243 351.798,343.557 351.374 C 343.249 351.183,343.279 350.996,343.657 350.756 C 344.057 350.503,344.068 350.411,343.700 350.406 C 343.425 350.403,343.200 350.029,343.200 349.576 C 343.200 349.123,343.020 348.864,342.800 349.000 C 342.580 349.136,342.394 348.922,342.387 348.524 C 342.374 347.771,341.621 346.565,341.100 346.460 C 340.935 346.427,340.620 346.400,340.400 346.400 C 340.180 346.400,340.000 346.151,340.000 345.846 C 340.000 345.541,339.550 344.997,339.000 344.637 C 338.450 344.276,338.000 344.104,338.000 344.253 C 338.000 344.402,337.685 344.244,337.300 343.901 C 336.149 342.876,328.467 343.070,326.970 344.160 " stroke="none" fill="#64b4eb" fill-rule="evenodd"></path><path id="path1" d="M236.000 67.938 C 219.063 75.209,206.569 87.675,199.055 104.800 C 197.169 109.098,194.400 119.718,194.400 122.653 C 194.400 124.681,193.708 125.047,189.334 125.329 C 182.745 125.756,174.744 128.199,169.398 131.418 C 168.136 132.178,167.021 132.800,166.921 132.800 C 166.482 132.800,161.562 136.790,159.052 139.182 C 143.648 153.857,139.349 178.078,148.819 196.838 C 149.469 198.125,150.000 199.362,150.000 199.589 C 150.000 200.146,90.073 200.154,86.433 199.597 C 75.569 197.935,71.057 196.585,63.000 192.585 C 49.613 185.939,38.070 174.283,31.920 161.200 C 29.953 157.016,29.619 156.184,28.443 152.560 C 22.455 134.094,24.978 111.508,34.737 96.222 C 35.432 95.134,36.000 94.099,36.000 93.922 C 36.000 93.444,34.889 93.532,34.726 94.022 C 34.589 94.434,33.805 94.676,32.200 94.801 C 31.760 94.835,31.620 94.952,31.889 95.061 C 32.430 95.280,30.751 97.200,30.018 97.200 C 29.788 97.200,29.600 97.380,29.600 97.600 C 29.600 97.820,29.403 98.000,29.163 98.000 C 28.923 98.000,28.269 98.360,27.709 98.800 C 27.150 99.240,26.805 99.600,26.943 99.600 C 27.082 99.600,26.809 100.044,26.337 100.586 C 25.865 101.129,25.282 101.460,25.040 101.322 C 24.798 101.184,24.720 101.206,24.867 101.370 C 25.239 101.785,23.946 103.214,23.467 102.918 C 23.252 102.785,23.198 102.873,23.346 103.112 C 23.494 103.352,23.162 104.002,22.608 104.556 C 22.053 105.110,21.600 105.675,21.600 105.810 C 21.600 106.310,20.485 107.153,20.183 106.881 C 20.012 106.726,19.992 106.810,20.140 107.068 C 20.287 107.325,20.136 107.807,19.804 108.139 C 19.472 108.471,19.197 108.981,19.194 109.271 C 19.189 109.662,19.086 109.643,18.800 109.200 C 18.410 108.597,18.179 109.097,18.366 110.141 C 18.437 110.536,16.841 112.000,16.339 112.000 C 16.152 112.000,16.000 112.191,16.000 112.424 C 16.000 112.657,16.215 112.714,16.479 112.551 C 16.742 112.389,16.517 112.847,15.979 113.569 C 14.847 115.088,14.547 115.572,14.224 116.400 C 14.095 116.730,13.542 117.793,12.995 118.763 C 12.448 119.733,12.000 120.745,12.000 121.014 C 12.000 121.282,11.732 121.724,11.404 121.996 C 11.077 122.268,10.899 122.637,11.009 122.815 C 11.293 123.273,10.351 125.217,9.962 124.977 C 9.786 124.868,9.710 125.132,9.793 125.564 C 9.876 125.995,9.707 126.545,9.418 126.785 C 9.087 127.060,8.956 127.777,9.066 128.711 C 9.196 129.821,9.135 130.047,8.826 129.600 C 8.456 129.064,8.138 130.742,8.353 132.100 C 8.379 132.265,8.220 132.400,8.000 132.400 C 7.780 132.400,7.600 133.041,7.600 133.824 C 7.600 134.607,7.450 135.155,7.268 135.042 C 7.085 134.929,6.894 135.858,6.844 137.106 C 6.793 138.355,6.594 139.566,6.402 139.798 C 5.888 140.417,5.875 160.400,6.388 160.400 C 6.620 160.400,6.800 161.351,6.800 162.576 C 6.800 163.773,6.980 164.864,7.200 165.000 C 7.420 165.136,7.600 165.867,7.600 166.624 C 7.600 167.381,7.780 168.000,8.000 168.000 C 8.220 168.000,8.400 168.720,8.400 169.600 C 8.400 170.480,8.591 171.200,8.824 171.200 C 9.057 171.200,9.144 171.368,9.017 171.572 C 8.891 171.777,8.973 172.060,9.200 172.200 C 9.427 172.340,9.517 172.610,9.400 172.800 C 9.283 172.990,9.362 173.253,9.576 173.385 C 9.790 173.517,9.871 173.872,9.755 174.172 C 9.640 174.473,9.738 174.838,9.973 174.983 C 10.208 175.128,10.400 175.697,10.400 176.247 C 10.400 176.812,10.574 177.140,10.800 177.000 C 11.020 176.864,11.200 177.126,11.200 177.582 C 11.200 178.323,11.860 179.867,12.404 180.400 C 12.517 180.510,13.042 181.545,13.573 182.700 C 14.103 183.855,14.686 184.800,14.868 184.800 C 15.051 184.800,15.200 185.117,15.200 185.504 C 15.200 185.891,15.560 186.432,16.000 186.707 C 16.440 186.982,16.800 187.460,16.800 187.770 C 16.800 188.080,16.988 188.396,17.218 188.473 C 17.448 188.549,17.665 189.002,17.701 189.478 C 17.737 189.955,17.909 190.256,18.083 190.149 C 18.257 190.041,18.400 190.244,18.400 190.600 C 18.400 190.956,18.567 191.144,18.771 191.018 C 18.975 190.892,19.253 191.137,19.388 191.562 C 19.523 191.988,20.256 193.016,21.017 193.846 C 21.778 194.677,22.400 195.591,22.400 195.878 C 22.400 196.165,22.771 196.400,23.224 196.400 C 23.677 196.400,23.948 196.561,23.826 196.758 C 23.704 196.955,23.874 197.219,24.202 197.346 C 24.531 197.472,24.800 197.838,24.800 198.160 C 24.800 198.483,25.163 198.861,25.606 199.002 C 26.049 199.143,26.321 199.404,26.210 199.583 C 26.100 199.762,26.385 200.007,26.845 200.128 C 27.304 200.248,27.582 200.506,27.461 200.702 C 27.225 201.083,28.608 202.459,28.916 202.150 C 29.018 202.049,29.573 202.528,30.150 203.214 C 30.728 203.900,31.200 204.331,31.200 204.172 C 31.200 204.013,31.651 204.370,32.202 204.964 C 32.753 205.559,33.364 205.946,33.560 205.825 C 33.756 205.704,34.019 205.874,34.146 206.202 C 34.272 206.531,34.661 206.800,35.011 206.800 C 35.361 206.800,35.536 206.980,35.400 207.200 C 35.264 207.420,35.411 207.600,35.727 207.600 C 36.043 207.600,36.526 207.870,36.800 208.200 C 37.074 208.530,37.636 208.800,38.049 208.800 C 38.462 208.800,38.800 208.980,38.800 209.200 C 38.800 209.420,39.078 209.600,39.417 209.600 C 39.756 209.600,40.420 209.960,40.892 210.400 C 41.364 210.840,41.998 211.200,42.299 211.200 C 42.601 211.200,42.759 211.343,42.651 211.517 C 42.544 211.691,42.832 211.862,43.292 211.897 C 43.752 211.932,44.234 212.104,44.364 212.280 C 44.494 212.456,44.870 212.658,45.200 212.730 C 45.530 212.801,45.860 213.026,45.933 213.230 C 46.007 213.433,46.422 213.600,46.857 213.600 C 47.292 213.600,47.536 213.780,47.400 214.000 C 47.253 214.239,47.737 214.400,48.600 214.400 C 49.603 214.400,49.958 214.544,49.758 214.868 C 49.566 215.178,49.683 215.254,50.105 215.092 C 50.455 214.957,50.957 215.107,51.220 215.424 C 51.505 215.767,52.416 216.000,53.473 216.000 C 54.554 216.000,55.151 216.156,55.000 216.400 C 54.860 216.627,55.196 216.800,55.776 216.800 C 56.339 216.800,56.800 216.950,56.800 217.133 C 56.800 217.317,57.025 217.481,57.300 217.499 C 57.575 217.517,58.558 217.577,59.483 217.631 C 60.409 217.685,61.092 217.852,61.000 218.001 C 60.908 218.150,61.590 218.305,62.516 218.346 C 64.616 218.438,65.282 218.549,65.839 218.897 C 66.081 219.048,69.141 219.087,72.639 218.984 C 76.138 218.880,80.440 218.803,82.200 218.811 C 83.960 218.819,104.975 218.913,128.900 219.020 C 162.996 219.172,172.401 219.321,172.406 219.707 C 172.410 220.026,172.549 219.989,172.800 219.600 C 173.129 219.091,173.189 219.110,173.194 219.724 C 173.197 220.122,173.368 220.344,173.573 220.217 C 173.778 220.090,174.231 220.395,174.580 220.893 C 174.930 221.392,175.302 221.755,175.408 221.700 C 175.805 221.494,176.524 221.610,176.291 221.843 C 175.974 222.160,176.909 223.171,177.300 222.934 C 177.465 222.835,177.600 222.954,177.600 223.200 C 177.600 223.446,177.780 223.536,178.000 223.400 C 178.220 223.264,178.400 223.343,178.400 223.576 C 178.400 223.809,178.535 223.971,178.700 223.936 C 179.338 223.801,180.382 224.505,180.136 224.904 C 179.993 225.135,180.052 225.215,180.267 225.082 C 180.482 224.950,181.160 225.102,181.774 225.420 C 182.389 225.739,183.075 226.000,183.299 226.000 C 183.523 226.000,184.029 226.372,184.423 226.826 C 184.817 227.281,185.243 227.641,185.370 227.626 C 186.592 227.487,187.602 227.673,187.400 228.000 C 187.264 228.220,187.523 228.400,187.976 228.400 C 188.429 228.400,188.800 228.580,188.800 228.800 C 188.800 229.020,189.520 229.200,190.400 229.200 C 191.280 229.200,192.000 229.364,192.000 229.564 C 192.000 229.763,192.945 229.916,194.100 229.902 C 195.255 229.889,197.370 230.075,198.800 230.316 C 205.874 231.511,350.307 232.226,351.461 231.073 C 351.611 230.923,352.513 230.800,353.467 230.800 C 354.420 230.800,355.200 230.620,355.200 230.400 C 355.200 230.180,356.100 230.000,357.200 230.000 C 358.300 230.000,359.200 229.820,359.200 229.600 C 359.200 229.380,359.650 229.200,360.200 229.200 C 360.750 229.200,361.200 229.020,361.200 228.800 C 361.200 228.580,361.751 228.400,362.424 228.400 C 363.137 228.400,363.544 228.233,363.400 228.000 C 363.264 227.780,363.433 227.600,363.776 227.600 C 364.119 227.600,364.400 227.420,364.400 227.200 C 364.400 226.980,364.805 226.796,365.300 226.791 C 365.795 226.786,366.650 226.430,367.200 226.000 C 367.750 225.570,368.616 225.214,369.124 225.209 C 369.636 225.204,369.937 225.022,369.800 224.800 C 369.664 224.580,369.833 224.400,370.176 224.400 C 370.519 224.400,370.800 224.220,370.800 224.000 C 370.800 223.780,371.151 223.600,371.580 223.600 C 372.009 223.600,372.504 223.345,372.680 223.032 C 372.856 222.720,373.268 222.405,373.596 222.332 C 373.924 222.260,374.680 221.696,375.275 221.080 C 375.871 220.464,376.502 220.001,376.679 220.050 C 376.856 220.100,377.389 219.566,377.865 218.864 C 378.410 218.058,378.804 217.774,378.933 218.094 C 379.124 218.569,379.230 218.282,379.191 217.391 C 379.174 217.002,381.160 215.200,381.605 215.200 C 381.848 215.200,381.936 215.020,381.800 214.800 C 381.664 214.580,381.838 214.400,382.186 214.400 C 382.535 214.400,382.993 213.945,383.204 213.390 C 383.415 212.834,383.861 212.275,384.194 212.147 C 384.527 212.019,384.800 211.574,384.800 211.157 C 384.800 210.741,384.951 210.400,385.136 210.400 C 385.320 210.400,385.681 209.940,385.937 209.377 C 386.194 208.815,386.587 208.468,386.812 208.607 C 387.036 208.746,387.177 208.711,387.125 208.530 C 387.073 208.348,387.245 207.813,387.507 207.340 C 388.216 206.065,386.621 206.350,382.200 208.291 C 378.129 210.078,375.127 210.969,370.319 211.815 C 365.377 212.684,221.824 212.678,217.000 211.808 C 186.139 206.242,168.155 176.343,177.659 146.400 C 177.903 145.630,178.861 143.377,179.787 141.393 L 181.470 137.786 184.235 136.444 C 190.757 133.279,197.349 131.593,205.181 131.089 L 206.561 131.000 207.076 127.415 C 209.902 107.758,220.932 90.805,238.300 79.426 C 240.555 77.949,242.420 76.529,242.444 76.270 C 242.546 75.195,242.307 73.775,241.966 73.420 C 241.765 73.211,241.600 72.716,241.600 72.320 C 241.600 71.924,241.426 71.600,241.213 71.600 C 240.999 71.600,240.926 71.337,241.049 71.015 C 241.173 70.694,241.001 69.884,240.668 69.215 C 240.334 68.547,240.222 68.000,240.418 68.000 C 240.614 68.000,240.671 67.730,240.545 67.400 C 240.209 66.526,238.938 66.677,236.000 67.938 " stroke="none" fill="#5c6c74" fill-rule="evenodd"></path><path id="path2" d="M144.327 6.418 C 144.244 6.669,143.197 6.857,141.890 6.857 C 140.631 6.857,139.600 7.024,139.600 7.229 C 139.600 7.433,138.981 7.600,138.224 7.600 C 137.467 7.600,136.736 7.780,136.600 8.000 C 136.464 8.220,135.553 8.400,134.576 8.400 C 133.599 8.400,132.800 8.570,132.800 8.777 C 132.800 8.984,132.440 9.085,132.000 9.000 C 131.560 8.915,131.200 9.026,131.200 9.247 C 131.200 9.467,131.012 9.531,130.782 9.389 C 130.553 9.247,130.105 9.347,129.788 9.610 C 129.470 9.874,128.938 9.985,128.605 9.857 C 128.251 9.721,128.000 9.847,128.000 10.160 C 128.000 10.455,127.685 10.692,127.300 10.687 C 125.713 10.667,124.000 11.322,123.994 11.950 C 123.989 12.459,123.914 12.484,123.650 12.066 C 123.384 11.647,123.252 11.687,123.034 12.255 C 122.810 12.839,122.692 12.872,122.415 12.424 C 122.128 11.960,121.970 11.973,121.440 12.502 C 121.093 12.850,120.254 13.256,119.577 13.405 C 118.900 13.554,118.246 13.936,118.124 14.255 C 118.002 14.573,117.519 14.781,117.051 14.717 C 116.551 14.648,116.239 14.800,116.295 15.086 C 116.354 15.385,116.137 15.474,115.730 15.318 C 115.251 15.134,115.159 15.210,115.396 15.594 C 115.610 15.940,115.569 16.028,115.276 15.847 C 115.030 15.695,114.478 15.922,114.048 16.352 C 113.618 16.782,113.162 17.028,113.033 16.900 C 112.905 16.772,112.797 16.922,112.794 17.233 C 112.789 17.700,112.719 17.694,112.400 17.200 C 112.187 16.870,112.009 16.804,112.006 17.053 C 112.003 17.303,111.622 17.606,111.160 17.726 C 110.697 17.847,110.438 18.138,110.583 18.373 C 110.728 18.608,110.702 18.814,110.524 18.831 C 109.340 18.943,108.595 19.214,108.474 19.578 C 108.397 19.810,107.978 20.000,107.543 20.000 C 107.108 20.000,106.864 20.180,107.000 20.400 C 107.136 20.620,107.076 20.800,106.866 20.800 C 106.656 20.800,105.926 21.322,105.242 21.960 C 104.559 22.599,104.000 22.931,104.000 22.699 C 104.000 22.467,103.620 22.710,103.156 23.239 C 102.693 23.767,102.153 24.155,101.956 24.100 C 101.648 24.013,101.460 24.499,101.525 25.217 C 101.536 25.336,101.170 25.462,100.713 25.497 C 100.255 25.531,99.683 25.775,99.440 26.039 C 99.106 26.402,99.183 26.453,99.757 26.250 C 100.398 26.022,100.436 26.074,100.008 26.591 C 99.730 26.926,99.192 27.200,98.813 27.200 C 98.434 27.200,97.601 27.671,96.962 28.247 C 96.323 28.823,96.025 29.172,96.300 29.023 C 96.575 28.875,96.800 28.849,96.800 28.966 C 96.800 29.083,96.260 29.459,95.600 29.800 C 94.940 30.141,94.403 30.641,94.406 30.910 C 94.410 31.229,94.560 31.191,94.837 30.800 C 95.214 30.267,95.243 30.267,95.097 30.800 C 95.007 31.130,94.678 31.400,94.367 31.400 C 93.622 31.400,92.000 32.805,92.000 33.449 C 92.000 33.727,91.669 34.190,91.263 34.477 C 90.858 34.765,90.319 35.393,90.064 35.873 C 89.809 36.353,89.228 36.864,88.771 37.009 C 88.290 37.162,88.030 37.500,88.151 37.816 C 88.285 38.167,88.154 38.281,87.780 38.137 C 87.404 37.993,87.196 38.175,87.187 38.657 C 87.172 39.555,86.224 40.891,85.860 40.527 C 85.717 40.384,85.600 40.490,85.600 40.762 C 85.600 41.034,85.375 41.508,85.100 41.815 C 83.870 43.186,83.590 43.601,83.884 43.613 C 84.058 43.620,83.923 43.845,83.584 44.113 C 82.525 44.949,80.800 47.444,80.800 48.138 C 80.800 48.502,80.609 48.800,80.376 48.800 C 80.143 48.800,80.064 48.980,80.200 49.200 C 80.336 49.420,80.145 49.600,79.775 49.600 C 79.241 49.600,79.199 49.717,79.570 50.164 C 79.941 50.611,79.857 50.855,79.166 51.338 C 78.616 51.724,78.386 52.187,78.543 52.595 C 78.687 52.971,78.626 53.139,78.395 52.997 C 78.171 52.859,77.997 53.239,77.994 53.876 C 77.990 54.606,77.874 54.821,77.663 54.489 C 77.427 54.116,77.217 54.245,76.890 54.962 C 76.551 55.707,76.558 55.995,76.921 56.142 C 77.279 56.288,77.274 56.345,76.900 56.368 C 76.625 56.386,76.400 56.760,76.400 57.200 C 76.400 57.640,76.220 58.000,76.000 58.000 C 75.780 58.000,75.600 58.371,75.600 58.824 C 75.600 59.351,75.431 59.543,75.132 59.358 C 74.819 59.164,74.747 59.285,74.915 59.724 C 75.069 60.125,74.902 60.527,74.483 60.761 C 74.108 60.972,73.865 61.291,73.945 61.472 C 74.238 62.135,73.065 65.564,72.633 65.305 C 72.325 65.121,72.326 65.214,72.635 65.623 C 73.068 66.198,72.394 68.260,71.925 67.792 C 71.814 67.680,71.706 68.144,71.687 68.822 C 71.668 69.500,71.415 70.348,71.126 70.705 C 70.740 71.181,70.733 71.273,71.100 71.053 C 71.418 70.862,71.600 70.989,71.600 71.400 C 71.600 71.756,71.420 71.936,71.200 71.800 C 70.974 71.660,70.800 71.988,70.800 72.553 C 70.800 73.103,70.638 73.653,70.440 73.775 C 70.242 73.898,70.080 74.633,70.080 75.410 C 70.080 76.186,69.906 77.042,69.693 77.311 C 69.480 77.580,69.294 78.383,69.280 79.095 C 69.250 80.592,68.904 81.312,68.372 80.983 C 68.168 80.856,67.997 80.988,67.994 81.276 C 67.990 81.601,67.876 81.646,67.694 81.395 C 67.331 80.895,65.120 80.746,65.426 81.242 C 65.616 81.549,64.212 81.715,61.509 81.708 C 61.129 81.707,60.915 81.862,61.033 82.053 C 61.151 82.244,60.574 82.400,59.752 82.400 C 57.977 82.400,55.603 83.188,55.594 83.780 C 55.591 84.011,55.407 83.930,55.187 83.600 C 54.836 83.075,54.735 83.086,54.382 83.683 C 54.160 84.060,53.714 84.265,53.389 84.141 C 53.065 84.016,52.800 84.114,52.800 84.357 C 52.800 84.611,52.073 84.803,51.100 84.806 C 49.855 84.811,49.561 84.916,50.000 85.200 C 50.485 85.514,50.428 85.589,49.700 85.594 C 49.205 85.597,48.800 85.742,48.800 85.915 C 48.800 86.088,48.215 86.272,47.500 86.323 C 46.785 86.375,46.002 86.680,45.760 87.002 C 45.519 87.324,45.212 87.479,45.079 87.346 C 44.947 87.213,44.545 87.398,44.187 87.756 C 43.829 88.114,43.403 88.325,43.241 88.225 C 43.078 88.125,42.693 88.393,42.385 88.821 C 42.076 89.250,41.503 89.600,41.112 89.600 C 40.720 89.600,40.400 89.780,40.400 90.000 C 40.400 90.220,40.029 90.400,39.576 90.400 C 39.123 90.400,38.852 90.560,38.973 90.756 C 39.094 90.952,38.700 91.434,38.097 91.826 C 37.139 92.449,37.070 92.455,37.549 91.870 C 37.896 91.446,37.936 91.200,37.657 91.200 C 37.414 91.200,37.116 91.695,36.995 92.300 C 36.873 92.905,36.398 94.120,35.938 95.000 C 33.240 100.161,31.311 104.053,30.676 105.617 C 30.278 106.598,29.783 107.713,29.576 108.095 C 29.369 108.477,29.200 109.141,29.200 109.571 C 29.200 110.001,29.020 110.464,28.800 110.600 C 28.580 110.736,28.400 111.366,28.400 112.000 C 28.400 112.634,28.220 113.264,28.000 113.400 C 27.780 113.536,27.600 114.256,27.600 115.000 C 27.600 115.744,27.420 116.464,27.200 116.600 C 26.980 116.736,26.800 117.611,26.800 118.544 C 26.800 119.477,26.639 120.411,26.442 120.620 C 25.328 121.805,25.327 140.999,26.441 142.180 C 26.639 142.389,26.800 143.323,26.800 144.256 C 26.800 145.189,26.980 146.064,27.200 146.200 C 27.420 146.336,27.600 147.056,27.600 147.800 C 27.600 148.544,27.780 149.264,28.000 149.400 C 28.220 149.536,28.400 150.166,28.400 150.800 C 28.400 151.434,28.580 152.064,28.800 152.200 C 29.020 152.336,29.200 152.799,29.200 153.229 C 29.200 153.659,29.359 154.323,29.553 154.705 C 29.748 155.087,30.086 155.850,30.304 156.400 C 34.394 166.684,42.444 177.625,50.600 183.986 C 51.480 184.672,52.470 185.454,52.800 185.723 C 53.130 185.991,54.030 186.650,54.800 187.186 C 55.570 187.723,56.290 188.260,56.400 188.381 C 56.510 188.501,57.005 188.825,57.500 189.100 C 57.995 189.375,58.805 189.825,59.300 190.100 C 59.795 190.375,60.290 190.694,60.400 190.808 C 60.623 191.041,65.646 193.474,67.200 194.102 C 67.750 194.325,68.560 194.656,69.000 194.837 C 71.670 195.939,77.118 197.408,82.000 198.341 C 87.444 199.381,94.293 199.601,121.274 199.601 L 149.548 199.600 148.006 196.300 C 146.593 193.275,145.139 188.733,144.035 183.894 C 143.471 181.424,143.471 168.576,144.035 166.106 C 145.707 158.777,149.611 149.078,151.887 146.600 C 152.291 146.160,153.063 145.170,153.602 144.400 C 157.586 138.711,167.144 131.236,173.565 128.788 C 174.794 128.320,176.113 127.770,176.495 127.568 C 176.877 127.366,177.541 127.200,177.971 127.200 C 178.401 127.200,178.864 127.020,179.000 126.800 C 179.136 126.580,179.741 126.400,180.344 126.400 C 180.947 126.400,181.611 126.238,181.820 126.041 C 182.336 125.553,185.037 125.175,189.651 124.943 L 193.502 124.749 193.784 123.074 C 193.939 122.154,194.208 120.500,194.383 119.400 C 195.157 114.527,196.964 108.181,198.655 104.400 C 200.276 100.776,202.203 96.987,202.486 96.867 C 202.659 96.793,202.800 96.556,202.800 96.339 C 202.800 95.856,205.227 92.252,205.677 92.067 C 205.855 91.993,206.000 91.723,206.000 91.467 C 206.001 91.210,206.471 90.460,207.045 89.800 C 207.620 89.140,208.559 87.970,209.132 87.200 C 210.548 85.299,216.145 79.730,218.596 77.785 C 219.694 76.913,220.943 75.885,221.371 75.500 C 221.800 75.115,222.304 74.800,222.492 74.800 C 222.680 74.800,223.220 74.440,223.692 74.000 C 224.164 73.560,224.787 73.200,225.075 73.200 C 225.364 73.200,225.600 73.053,225.600 72.874 C 225.600 72.372,233.415 68.214,236.181 67.244 C 237.981 66.613,240.435 65.204,239.737 65.201 C 239.472 65.201,239.364 64.859,239.484 64.400 C 239.606 63.935,239.496 63.600,239.223 63.600 C 238.964 63.600,238.864 63.420,239.000 63.200 C 239.136 62.980,239.077 62.800,238.869 62.800 C 238.661 62.800,238.367 61.976,238.216 60.968 C 238.023 59.679,237.784 59.197,237.409 59.341 C 237.041 59.483,236.909 59.246,236.983 58.573 C 237.042 58.038,236.935 57.600,236.745 57.600 C 236.555 57.600,236.400 57.262,236.400 56.849 C 236.400 56.436,236.132 55.876,235.804 55.604 C 235.477 55.332,235.307 54.950,235.428 54.755 C 235.549 54.560,235.502 54.399,235.324 54.397 C 234.957 54.393,234.000 52.489,234.000 51.763 C 234.000 51.500,233.715 51.176,233.367 51.043 C 233.018 50.909,232.807 50.579,232.897 50.308 C 233.074 49.777,232.702 49.215,231.297 47.897 C 230.722 47.358,230.478 46.783,230.627 46.315 C 230.781 45.831,230.679 45.618,230.330 45.690 C 230.039 45.750,229.847 45.569,229.904 45.288 C 229.961 45.006,229.646 44.387,229.204 43.912 C 228.762 43.438,228.400 42.892,228.400 42.701 C 228.400 42.509,228.240 42.451,228.045 42.572 C 227.850 42.693,227.445 42.489,227.145 42.119 C 226.676 41.540,226.684 41.497,227.200 41.808 C 227.530 42.007,227.350 41.615,226.800 40.937 C 226.250 40.259,225.665 39.781,225.500 39.876 C 225.335 39.970,225.200 39.677,225.200 39.224 C 225.200 38.771,224.885 38.066,224.500 37.659 C 224.115 37.251,223.182 36.181,222.427 35.280 C 221.672 34.379,220.880 33.751,220.666 33.883 C 220.452 34.015,220.386 33.947,220.519 33.730 C 220.884 33.140,218.458 30.400,217.571 30.400 C 217.147 30.400,216.800 30.162,216.800 29.872 C 216.800 29.273,215.013 27.600,214.373 27.600 C 214.142 27.600,214.035 27.465,214.135 27.300 C 214.235 27.135,213.886 26.677,213.359 26.281 C 212.825 25.881,212.400 25.759,212.400 26.005 C 212.400 26.248,212.217 26.334,211.993 26.196 C 211.770 26.058,211.686 25.785,211.807 25.589 C 211.927 25.394,211.480 24.952,210.813 24.607 C 210.146 24.262,209.600 23.804,209.600 23.590 C 209.600 23.375,209.229 23.200,208.776 23.200 C 208.323 23.200,208.064 23.020,208.200 22.800 C 208.336 22.580,208.156 22.400,207.800 22.400 C 207.444 22.400,207.264 22.220,207.400 22.000 C 207.536 21.780,207.406 21.600,207.112 21.600 C 206.817 21.600,206.320 21.244,206.006 20.809 C 205.632 20.289,205.342 20.170,205.162 20.462 C 204.991 20.738,204.790 20.600,204.630 20.096 C 204.398 19.362,203.370 18.763,202.129 18.637 C 201.870 18.611,201.309 18.187,200.882 17.695 C 200.455 17.203,199.819 16.800,199.469 16.800 C 199.118 16.800,198.478 16.421,198.046 15.957 C 197.614 15.494,197.066 15.235,196.828 15.383 C 196.589 15.530,196.282 15.359,196.146 15.002 C 196.009 14.646,195.643 14.451,195.333 14.570 C 195.023 14.689,194.666 14.515,194.538 14.183 C 194.379 13.768,194.158 13.703,193.831 13.975 C 193.500 14.249,193.182 14.129,192.789 13.585 C 192.478 13.153,191.803 12.800,191.288 12.800 C 190.766 12.800,190.462 12.623,190.600 12.400 C 190.740 12.173,190.404 12.000,189.824 12.000 C 189.261 12.000,188.800 11.809,188.800 11.576 C 188.800 11.343,188.609 11.271,188.375 11.416 C 188.141 11.560,187.614 11.375,187.203 11.003 C 186.746 10.589,186.149 10.426,185.658 10.581 C 185.124 10.751,184.709 10.597,184.406 10.118 C 184.102 9.635,183.887 9.556,183.751 9.878 C 183.532 10.394,182.561 10.173,181.600 9.389 C 181.270 9.120,180.684 8.951,180.298 9.015 C 179.912 9.078,179.698 8.966,179.822 8.765 C 179.946 8.564,179.317 8.400,178.424 8.400 C 177.531 8.400,176.800 8.220,176.800 8.000 C 176.800 7.780,176.001 7.600,175.024 7.600 C 174.047 7.600,173.136 7.420,173.000 7.200 C 172.864 6.980,171.683 6.800,170.376 6.800 C 169.069 6.800,168.000 6.630,168.000 6.422 C 168.000 5.859,144.515 5.855,144.327 6.418 M264.305 68.886 C 264.234 69.097,263.282 69.281,262.188 69.294 C 261.095 69.307,260.089 69.489,259.953 69.697 C 259.817 69.906,259.054 70.095,258.257 70.117 C 257.388 70.142,257.007 70.284,257.304 70.473 C 257.742 70.751,256.509 71.007,255.500 70.847 C 255.335 70.821,255.197 71.025,255.194 71.300 C 255.190 71.633,255.058 71.600,254.800 71.200 C 254.542 70.800,254.410 70.767,254.406 71.100 C 254.403 71.375,253.950 71.600,253.400 71.600 C 252.850 71.600,252.400 71.780,252.400 72.000 C 252.400 72.220,251.770 72.400,251.000 72.400 C 250.230 72.400,249.600 72.580,249.600 72.800 C 249.600 73.020,249.251 73.200,248.824 73.200 C 248.397 73.200,247.936 73.380,247.800 73.600 C 247.664 73.820,247.113 74.000,246.576 74.000 C 245.984 74.000,245.600 74.231,245.600 74.587 C 245.600 74.945,245.365 75.085,245.000 74.945 C 244.670 74.818,244.400 74.893,244.400 75.111 C 244.400 75.328,244.041 75.601,243.602 75.715 C 243.163 75.830,242.678 76.256,242.524 76.662 C 242.221 77.464,241.405 78.400,241.011 78.400 C 239.599 78.400,229.790 86.163,225.647 90.559 C 224.631 91.637,223.403 92.926,222.918 93.424 C 221.733 94.638,216.000 103.010,216.000 103.525 C 216.000 103.750,215.865 103.993,215.700 104.067 C 215.276 104.255,212.800 109.199,212.800 109.856 C 212.800 110.155,212.620 110.400,212.400 110.400 C 212.180 110.400,212.000 110.749,212.000 111.176 C 212.000 111.603,211.820 112.064,211.600 112.200 C 211.380 112.336,211.200 112.887,211.200 113.424 C 211.200 113.961,211.020 114.400,210.800 114.400 C 210.580 114.400,210.400 114.839,210.400 115.376 C 210.400 115.913,210.220 116.464,210.000 116.600 C 209.780 116.736,209.600 117.366,209.600 118.000 C 209.600 118.634,209.420 119.264,209.200 119.400 C 208.980 119.536,208.800 120.231,208.800 120.944 C 208.800 121.657,208.637 122.411,208.439 122.620 C 208.240 122.829,207.974 123.810,207.848 124.800 C 207.721 125.790,207.479 127.672,207.309 128.982 L 207.000 131.363 203.600 131.865 C 201.730 132.140,199.583 132.374,198.828 132.383 C 198.074 132.392,196.904 132.568,196.228 132.773 C 195.553 132.978,194.190 133.359,193.200 133.620 C 191.036 134.191,185.573 136.246,183.524 137.261 C 182.113 137.960,180.577 140.490,178.704 145.200 C 178.486 145.750,178.148 146.513,177.953 146.895 C 177.759 147.277,177.600 148.031,177.600 148.571 C 177.600 149.111,177.439 149.652,177.242 149.774 C 176.882 149.997,176.737 150.759,175.944 156.600 C 175.265 161.607,175.588 171.298,176.452 171.832 C 176.643 171.950,176.800 172.746,176.800 173.600 C 176.800 174.454,176.980 175.264,177.200 175.400 C 177.420 175.536,177.600 176.177,177.600 176.824 C 177.600 177.471,177.780 178.000,178.000 178.000 C 178.220 178.000,178.400 178.362,178.400 178.805 C 178.400 179.248,178.561 179.923,178.758 180.305 C 178.955 180.687,179.715 182.260,180.447 183.800 C 185.160 193.718,199.505 207.600,205.041 207.600 C 205.348 207.600,205.600 207.780,205.600 208.000 C 205.600 208.220,205.949 208.400,206.376 208.400 C 206.803 208.400,207.264 208.580,207.400 208.800 C 207.536 209.020,207.999 209.200,208.429 209.200 C 208.859 209.200,209.523 209.362,209.905 209.561 C 210.287 209.760,211.320 210.101,212.200 210.321 C 213.080 210.540,214.610 210.951,215.600 211.235 C 217.031 211.645,232.268 211.779,290.000 211.889 C 364.467 212.030,371.350 211.911,375.000 210.418 C 375.440 210.238,376.610 209.859,377.600 209.576 C 378.590 209.293,379.571 208.912,379.780 208.730 C 379.989 208.549,380.574 208.400,381.080 208.400 C 381.586 208.400,382.000 208.220,382.000 208.000 C 382.000 207.780,382.360 207.600,382.800 207.600 C 383.240 207.600,383.600 207.420,383.600 207.200 C 383.600 206.980,383.945 206.800,384.367 206.800 C 384.788 206.800,385.195 206.616,385.269 206.392 C 385.344 206.167,385.989 205.942,386.702 205.892 C 387.415 205.841,387.999 205.654,387.999 205.476 C 388.000 205.298,388.208 205.282,388.463 205.439 C 388.780 205.635,388.855 205.453,388.700 204.862 C 388.554 204.303,388.627 204.093,388.905 204.265 C 389.180 204.435,389.241 204.283,389.073 203.845 C 388.895 203.382,388.960 203.252,389.273 203.445 C 389.585 203.638,389.650 203.507,389.473 203.045 C 389.316 202.636,389.370 202.458,389.605 202.603 C 390.090 202.903,390.915 200.877,390.621 200.110 C 390.504 199.807,390.582 199.665,390.793 199.796 C 391.235 200.069,391.792 198.235,391.440 197.665 C 391.311 197.455,391.477 197.179,391.809 197.052 C 392.191 196.905,392.381 196.388,392.325 195.650 C 392.276 195.006,392.427 194.237,392.662 193.940 C 392.896 193.643,393.113 192.601,393.144 191.624 C 393.175 190.646,393.401 189.723,393.645 189.572 C 393.954 189.381,393.923 189.230,393.545 189.080 C 393.140 188.919,393.131 188.855,393.510 188.832 C 394.131 188.793,394.193 172.400,393.573 172.400 C 393.368 172.400,393.200 171.500,393.200 170.400 C 393.200 169.300,393.020 168.400,392.800 168.400 C 392.580 168.400,392.400 167.810,392.400 167.088 C 392.400 166.235,392.120 165.575,391.600 165.200 C 391.160 164.883,390.813 164.258,390.828 163.812 C 390.856 163.005,390.858 163.005,391.200 163.800 C 391.494 164.484,391.548 164.499,391.572 163.900 C 391.587 163.515,391.240 162.840,390.800 162.400 C 389.918 161.518,389.735 160.989,390.469 161.443 C 390.727 161.602,390.637 161.303,390.269 160.777 C 389.901 160.252,389.600 159.502,389.600 159.111 C 389.600 158.720,389.420 158.400,389.200 158.400 C 388.980 158.400,388.800 158.149,388.800 157.843 C 388.800 157.536,388.511 157.175,388.158 157.039 C 387.799 156.901,387.616 156.536,387.742 156.208 C 387.868 155.878,387.614 155.375,387.162 155.058 C 386.719 154.748,386.328 154.107,386.293 153.633 C 386.254 153.118,385.883 152.685,385.370 152.557 C 384.800 152.414,384.527 152.049,384.557 151.471 C 384.604 150.565,382.666 148.207,381.861 148.191 C 381.608 148.186,381.450 147.885,381.511 147.521 C 381.571 147.158,381.409 146.729,381.149 146.568 C 380.834 146.374,380.774 146.464,380.968 146.838 C 381.128 147.147,380.976 147.051,380.630 146.624 C 380.283 146.196,379.999 146.016,379.999 146.224 C 379.998 146.431,379.613 145.970,379.144 145.200 C 378.011 143.341,376.786 142.320,376.036 142.608 C 375.699 142.737,375.540 142.726,375.682 142.585 C 376.041 142.225,373.211 139.546,372.764 139.822 C 372.564 139.946,372.400 139.767,372.400 139.424 C 372.400 139.081,372.265 138.821,372.100 138.847 C 370.977 139.025,370.231 138.768,370.800 138.400 C 371.399 138.013,370.877 137.835,369.304 137.892 C 369.032 137.902,368.891 137.776,368.992 137.613 C 369.200 137.276,367.460 136.400,366.581 136.400 C 366.262 136.400,366.000 136.220,366.000 136.000 C 366.000 135.780,365.706 135.600,365.347 135.600 C 364.988 135.600,364.362 135.218,363.957 134.751 C 363.483 134.204,362.932 133.977,362.411 134.113 C 361.965 134.230,361.507 134.173,361.392 133.988 C 361.049 133.432,358.750 132.390,359.052 132.927 C 359.231 133.247,359.143 133.238,358.779 132.900 C 358.482 132.625,357.837 132.400,357.344 132.400 C 356.851 132.400,356.336 132.220,356.200 132.000 C 356.064 131.780,355.153 131.600,354.176 131.600 C 353.199 131.600,352.400 131.444,352.400 131.254 C 352.400 131.063,350.580 130.917,348.355 130.929 L 344.311 130.950 343.768 129.659 C 343.470 128.949,343.400 128.476,343.613 128.608 C 343.826 128.739,344.000 128.672,344.000 128.457 C 344.000 128.242,343.814 128.005,343.587 127.929 C 343.360 127.853,343.158 126.942,343.137 125.903 C 343.116 124.865,342.979 124.089,342.832 124.180 C 342.686 124.270,342.540 123.993,342.507 123.564 C 342.470 123.067,342.622 122.880,342.924 123.050 C 343.253 123.235,343.245 123.151,342.900 122.779 C 342.625 122.482,342.400 121.837,342.400 121.344 C 342.400 120.851,342.201 120.324,341.957 120.174 C 341.649 119.983,341.679 119.796,342.057 119.556 C 342.457 119.303,342.468 119.211,342.100 119.206 C 341.825 119.203,341.600 118.851,341.600 118.424 C 341.600 117.997,341.419 117.536,341.199 117.399 C 340.978 117.263,340.902 116.733,341.030 116.221 C 341.171 115.662,341.036 115.078,340.692 114.757 C 340.378 114.464,340.204 113.905,340.306 113.517 C 340.410 113.120,340.227 112.709,339.890 112.579 C 339.527 112.440,339.369 112.041,339.491 111.574 C 339.636 111.019,339.482 110.791,338.947 110.768 C 338.536 110.751,338.416 110.649,338.679 110.542 C 339.197 110.331,338.561 108.400,337.973 108.400 C 337.809 108.400,337.750 107.995,337.842 107.500 C 337.934 107.005,337.902 106.825,337.771 107.100 C 337.308 108.074,336.824 107.582,337.064 106.382 C 337.246 105.468,337.169 105.194,336.754 105.282 C 336.445 105.348,336.198 105.083,336.197 104.683 C 336.195 104.289,335.958 103.821,335.670 103.643 C 335.382 103.465,335.110 103.067,335.064 102.757 C 335.019 102.448,334.678 101.761,334.308 101.232 C 333.937 100.703,333.714 100.139,333.812 99.980 C 333.911 99.821,333.633 99.597,333.196 99.483 C 332.711 99.356,332.400 98.937,332.400 98.409 C 332.400 97.479,331.456 96.277,331.048 96.686 C 330.819 96.914,330.642 96.202,330.753 95.500 C 330.779 95.335,330.530 95.200,330.200 95.200 C 329.870 95.200,329.645 95.042,329.700 94.848 C 329.755 94.655,329.305 94.033,328.700 93.467 C 328.095 92.901,327.600 92.256,327.600 92.033 C 327.600 91.810,327.240 91.435,326.800 91.200 C 326.360 90.965,326.000 90.508,326.000 90.186 C 326.000 89.864,325.684 89.600,325.298 89.600 C 324.902 89.600,324.363 89.076,324.064 88.400 C 323.712 87.604,323.241 87.198,322.666 87.194 C 322.016 87.189,321.938 87.101,322.353 86.838 C 322.781 86.567,322.692 86.420,321.961 86.188 C 321.147 85.929,318.543 83.600,319.068 83.600 C 319.172 83.600,318.988 83.331,318.658 83.001 C 318.329 82.672,317.821 82.462,317.530 82.536 C 317.238 82.609,317.136 82.593,317.302 82.500 C 317.828 82.208,317.187 81.600,316.353 81.600 C 315.913 81.600,315.654 81.436,315.779 81.235 C 315.903 81.034,315.464 80.630,314.802 80.337 C 314.141 80.044,313.600 79.649,313.600 79.460 C 313.600 79.270,313.323 79.221,312.985 79.350 C 312.635 79.485,312.272 79.331,312.142 78.993 C 312.017 78.667,311.653 78.400,311.334 78.400 C 310.992 78.400,310.872 78.207,311.042 77.932 C 311.233 77.622,311.117 77.546,310.699 77.707 C 310.323 77.851,309.970 77.698,309.828 77.329 C 309.680 76.943,309.291 76.788,308.795 76.917 C 308.357 77.032,308.101 76.961,308.225 76.759 C 308.472 76.359,306.787 75.584,306.297 75.872 C 306.131 75.970,305.886 75.769,305.754 75.425 C 305.622 75.081,305.264 74.800,304.957 74.800 C 304.651 74.800,304.400 74.584,304.400 74.320 C 304.400 73.965,304.283 73.957,303.951 74.289 C 303.618 74.622,303.286 74.539,302.675 73.969 C 302.221 73.546,301.444 73.200,300.948 73.200 C 300.453 73.200,299.936 73.020,299.800 72.800 C 299.664 72.580,299.103 72.400,298.553 72.400 C 298.003 72.400,297.650 72.242,297.769 72.050 C 297.888 71.858,297.518 71.700,296.947 71.700 C 296.376 71.700,295.775 71.484,295.612 71.219 C 295.449 70.955,295.064 70.774,294.757 70.817 C 293.490 70.994,292.211 70.781,292.696 70.473 C 292.993 70.284,292.612 70.142,291.743 70.117 C 290.946 70.095,290.183 69.906,290.047 69.697 C 289.911 69.489,288.920 69.307,287.845 69.294 C 286.770 69.281,285.780 69.094,285.645 68.878 C 285.319 68.355,264.479 68.363,264.305 68.886 M34.976 92.987 C 34.549 93.310,34.380 93.575,34.600 93.575 C 34.820 93.575,35.349 93.310,35.776 92.987 C 36.204 92.664,36.373 92.400,36.153 92.400 C 35.933 92.400,35.404 92.664,34.976 92.987 " stroke="none" fill="#7c848c" fill-rule="evenodd"></path><path id="path3" d="M181.728 9.484 C 182.070 10.037,183.600 10.428,183.600 9.963 C 183.600 9.763,183.435 9.600,183.233 9.600 C 183.031 9.600,182.551 9.479,182.167 9.332 C 181.728 9.164,181.565 9.220,181.728 9.484 M99.200 26.471 C 98.542 26.748,98.384 26.960,98.739 27.092 C 99.036 27.202,99.569 27.002,99.925 26.646 C 100.664 25.908,100.585 25.889,99.200 26.471 M237.600 66.619 C 236.610 67.146,235.600 67.583,235.355 67.589 C 234.945 67.599,231.406 69.369,227.300 71.617 C 226.365 72.130,225.600 72.695,225.600 72.874 C 225.600 73.053,225.364 73.200,225.075 73.200 C 224.787 73.200,224.164 73.560,223.692 74.000 C 223.220 74.440,222.680 74.800,222.492 74.800 C 222.304 74.800,221.800 75.115,221.371 75.500 C 220.943 75.885,219.694 76.913,218.596 77.785 C 216.145 79.730,210.548 85.299,209.132 87.200 C 208.559 87.970,207.620 89.140,207.045 89.800 C 206.471 90.460,206.001 91.210,206.000 91.467 C 206.000 91.723,205.855 91.993,205.677 92.067 C 205.227 92.252,202.800 95.856,202.800 96.339 C 202.800 96.556,202.656 96.793,202.481 96.867 C 202.305 96.940,201.396 98.620,200.461 100.600 C 199.525 102.580,198.619 104.470,198.446 104.800 C 197.216 107.151,194.205 118.515,194.467 119.820 C 194.553 120.249,194.928 119.065,195.300 117.190 C 198.912 98.973,210.613 82.485,227.000 72.520 C 231.752 69.630,237.988 66.800,239.602 66.800 C 240.125 66.800,240.300 66.606,240.145 66.200 C 239.855 65.445,239.781 65.458,237.600 66.619 M238.199 79.490 C 225.298 87.957,216.267 98.984,210.906 112.811 C 209.080 117.522,208.463 119.856,209.157 119.426 C 209.401 119.276,209.600 118.634,209.600 118.000 C 209.600 117.366,209.780 116.736,210.000 116.600 C 210.220 116.464,210.400 115.913,210.400 115.376 C 210.400 114.839,210.580 114.400,210.800 114.400 C 211.020 114.400,211.200 113.961,211.200 113.424 C 211.200 112.887,211.380 112.336,211.600 112.200 C 211.820 112.064,212.000 111.603,212.000 111.176 C 212.000 110.749,212.180 110.400,212.400 110.400 C 212.620 110.400,212.800 110.155,212.800 109.856 C 212.800 109.199,215.276 104.255,215.700 104.067 C 215.865 103.993,216.000 103.750,216.000 103.525 C 216.000 103.010,221.733 94.638,222.918 93.424 C 223.403 92.926,224.631 91.637,225.647 90.559 C 229.790 86.163,239.599 78.400,241.011 78.400 C 241.361 78.400,242.525 77.192,242.347 77.013 C 242.265 76.932,240.399 78.046,238.199 79.490 M35.874 92.819 C 35.339 93.333,35.284 93.561,35.663 93.688 C 36.020 93.807,35.669 94.704,34.510 96.629 C 30.004 104.120,23.907 122.141,26.400 120.600 C 26.620 120.464,26.800 119.564,26.800 118.600 C 26.800 117.636,26.980 116.736,27.200 116.600 C 27.420 116.464,27.600 115.744,27.600 115.000 C 27.600 114.256,27.780 113.536,28.000 113.400 C 28.220 113.264,28.400 112.634,28.400 112.000 C 28.400 111.366,28.580 110.736,28.800 110.600 C 29.020 110.464,29.200 110.001,29.200 109.571 C 29.200 109.141,29.365 108.477,29.566 108.095 C 29.768 107.713,30.236 106.680,30.607 105.800 C 31.814 102.936,34.145 98.251,35.519 95.926 C 36.995 93.428,37.212 91.536,35.874 92.819 M33.867 93.867 C 33.381 94.353,33.590 94.779,34.200 94.545 C 34.530 94.418,34.800 94.154,34.800 93.957 C 34.800 93.538,34.249 93.484,33.867 93.867 M208.303 120.800 C 207.861 122.315,207.915 123.045,208.431 122.529 C 208.668 122.292,208.802 121.581,208.729 120.949 L 208.595 119.800 208.303 120.800 M25.503 123.200 C 25.340 124.410,25.222 126.210,25.240 127.200 L 25.272 129.000 25.654 127.676 C 25.864 126.947,25.982 125.147,25.918 123.676 L 25.800 121.000 25.503 123.200 M193.905 122.000 C 193.430 123.613,193.520 125.179,194.037 124.291 C 194.264 123.902,194.393 123.002,194.325 122.291 C 194.205 121.054,194.188 121.042,193.905 122.000 M207.461 124.937 C 207.284 126.002,207.235 126.968,207.351 127.084 C 207.685 127.419,208.076 125.409,207.922 124.148 C 207.808 123.215,207.721 123.362,207.461 124.937 M185.600 125.198 C 185.206 125.450,186.376 125.498,189.000 125.336 C 191.200 125.200,193.075 125.024,193.167 124.944 C 193.563 124.601,186.142 124.850,185.600 125.198 M181.800 126.000 C 181.514 126.463,182.555 126.463,184.000 126.000 C 184.898 125.712,184.850 125.676,183.524 125.640 C 182.712 125.618,181.936 125.780,181.800 126.000 M179.000 126.800 C 178.705 127.278,179.489 127.278,180.600 126.800 C 181.314 126.493,181.285 126.453,180.324 126.428 C 179.732 126.413,179.136 126.580,179.000 126.800 M176.600 127.600 C 176.308 128.073,176.699 128.073,177.800 127.600 C 178.571 127.269,178.569 127.255,177.724 127.228 C 177.242 127.213,176.736 127.380,176.600 127.600 M206.769 129.200 C 206.606 130.937,206.551 131.003,205.200 131.089 C 197.380 131.586,190.763 133.276,184.235 136.444 L 181.470 137.786 179.778 141.393 C 177.019 147.272,173.657 161.535,175.416 159.895 C 175.596 159.728,175.886 158.198,176.061 156.495 C 176.549 151.736,176.852 150.015,177.242 149.774 C 177.439 149.652,177.600 149.111,177.600 148.571 C 177.600 148.031,177.759 147.277,177.953 146.895 C 178.148 146.513,178.486 145.750,178.704 145.200 C 180.577 140.490,182.113 137.960,183.524 137.261 C 185.573 136.246,191.036 134.191,193.200 133.620 C 194.190 133.359,195.553 132.978,196.228 132.773 C 196.904 132.568,198.074 132.392,198.828 132.383 C 205.495 132.301,207.619 131.250,207.096 128.295 C 207.004 127.776,206.866 128.157,206.769 129.200 M172.200 129.362 C 165.250 132.672,157.331 139.075,153.602 144.400 C 153.063 145.170,152.291 146.160,151.887 146.600 C 148.554 150.230,143.532 164.807,143.653 170.506 L 143.705 173.000 144.024 170.200 C 146.089 152.084,156.067 137.977,172.600 129.797 C 174.580 128.818,175.930 128.019,175.600 128.023 C 175.270 128.026,173.740 128.629,172.200 129.362 M25.419 137.365 C 25.720 143.155,27.952 152.491,30.255 157.600 C 34.672 167.397,39.154 173.941,45.892 180.427 C 51.440 185.767,56.475 189.346,63.000 192.585 C 71.057 196.585,75.569 197.935,86.433 199.597 C 89.684 200.095,150.000 200.150,150.000 199.655 C 150.000 199.466,149.300 197.801,148.444 195.955 C 147.072 192.995,146.363 190.940,144.872 185.600 C 144.516 184.323,144.478 184.294,144.441 185.277 C 144.386 186.720,146.821 194.072,148.369 197.138 L 149.612 199.600 121.306 199.601 C 94.293 199.601,87.445 199.382,82.000 198.341 C 76.989 197.383,71.501 195.893,68.900 194.784 C 68.405 194.573,67.595 194.242,67.100 194.049 C 65.743 193.520,60.628 191.046,60.400 190.808 C 60.290 190.694,59.795 190.375,59.300 190.100 C 58.805 189.825,57.995 189.375,57.500 189.100 C 57.005 188.825,56.510 188.501,56.400 188.381 C 56.290 188.260,55.570 187.723,54.800 187.186 C 54.030 186.650,53.130 185.991,52.800 185.723 C 52.470 185.454,51.480 184.672,50.600 183.986 C 42.444 177.625,34.394 166.684,30.304 156.400 C 30.086 155.850,29.748 155.087,29.553 154.705 C 29.359 154.323,29.200 153.659,29.200 153.229 C 29.200 152.799,29.020 152.336,28.800 152.200 C 28.580 152.064,28.400 151.434,28.400 150.800 C 28.400 150.166,28.220 149.536,28.000 149.400 C 27.780 149.264,27.600 148.544,27.600 147.800 C 27.600 147.056,27.420 146.336,27.200 146.200 C 26.980 146.064,26.800 145.164,26.800 144.200 C 26.800 143.236,26.620 142.336,26.400 142.200 C 26.180 142.064,25.982 140.478,25.960 138.676 C 25.938 136.874,25.761 134.950,25.566 134.400 C 25.340 133.760,25.287 134.828,25.419 137.365 M175.263 166.400 C 175.254 167.390,175.395 168.920,175.577 169.800 C 175.894 171.330,175.908 171.295,175.914 169.000 C 175.917 167.680,175.776 166.150,175.600 165.600 C 175.337 164.778,175.277 164.920,175.263 166.400 M176.207 173.249 C 177.976 183.777,186.879 197.104,196.403 203.482 C 201.611 206.970,211.060 211.209,212.473 210.692 C 212.763 210.585,212.460 210.376,211.800 210.225 C 211.140 210.075,210.287 209.783,209.905 209.576 C 209.523 209.369,208.859 209.200,208.429 209.200 C 207.999 209.200,207.536 209.020,207.400 208.800 C 207.264 208.580,206.803 208.400,206.376 208.400 C 205.949 208.400,205.600 208.220,205.600 208.000 C 205.600 207.780,205.348 207.600,205.041 207.600 C 199.505 207.600,185.160 193.718,180.447 183.800 C 179.715 182.260,178.955 180.687,178.758 180.305 C 178.561 179.923,178.400 179.248,178.400 178.805 C 178.400 178.362,178.220 178.000,178.000 178.000 C 177.780 178.000,177.600 177.471,177.600 176.824 C 177.600 176.177,177.420 175.536,177.200 175.400 C 176.980 175.264,176.800 174.454,176.800 173.600 C 176.800 172.746,176.600 171.924,176.356 171.773 C 176.041 171.578,175.998 172.006,176.207 173.249 M143.628 179.833 C 143.644 181.355,143.819 182.960,144.019 183.400 C 144.249 183.908,144.293 182.961,144.140 180.800 C 143.841 176.607,143.591 176.134,143.628 179.833 M386.100 205.885 C 385.605 205.979,385.200 206.223,385.200 206.428 C 385.200 206.633,384.840 206.800,384.400 206.800 C 383.960 206.800,383.600 206.980,383.600 207.200 C 383.600 207.420,383.240 207.600,382.800 207.600 C 382.360 207.600,382.000 207.780,382.000 208.000 C 382.000 208.568,382.189 208.520,384.428 207.386 C 385.529 206.828,386.648 206.422,386.915 206.483 C 387.182 206.544,387.459 206.420,387.530 206.207 C 387.686 205.743,387.305 205.657,386.100 205.885 M379.780 208.730 C 379.571 208.912,378.590 209.293,377.600 209.578 C 376.610 209.862,375.549 210.167,375.243 210.257 C 374.936 210.346,374.790 210.524,374.919 210.652 C 375.157 210.890,380.118 209.408,381.200 208.775 C 381.684 208.492,381.641 208.422,380.980 208.412 C 380.529 208.405,379.989 208.549,379.780 208.730 M213.800 211.200 C 214.240 211.389,215.140 211.544,215.800 211.544 C 216.823 211.544,216.882 211.493,216.200 211.200 C 215.760 211.011,214.860 210.856,214.200 210.856 C 213.177 210.856,213.118 210.907,213.800 211.200 M371.400 211.200 C 370.306 211.670,372.133 211.670,373.600 211.200 C 374.575 210.888,374.570 210.879,373.400 210.868 C 372.740 210.862,371.840 211.011,371.400 211.200 M218.223 212.053 C 219.837 212.399,367.013 212.423,368.958 212.077 C 369.815 211.925,335.986 211.800,293.781 211.800 C 251.577 211.800,217.575 211.914,218.223 212.053 M80.711 218.693 C 81.651 218.778,83.091 218.777,83.911 218.691 C 84.730 218.605,83.960 218.536,82.200 218.537 C 80.440 218.539,79.770 218.609,80.711 218.693 M194.400 230.000 C 195.867 230.470,197.694 230.470,196.600 230.000 C 196.160 229.811,195.260 229.662,194.600 229.668 C 193.430 229.679,193.425 229.688,194.400 230.000 M198.600 230.789 C 199.348 231.121,205.930 231.372,205.567 231.054 C 205.475 230.974,203.690 230.802,201.600 230.671 C 199.257 230.524,198.107 230.569,198.600 230.789 " stroke="none" fill="#74848c" fill-rule="evenodd"></path><path id="path4" d="M80.500 219.094 C 81.545 219.176,83.255 219.176,84.300 219.094 C 85.345 219.012,84.490 218.944,82.400 218.944 C 80.310 218.944,79.455 219.012,80.500 219.094 M193.296 230.229 C 193.986 230.920,199.336 231.329,208.400 231.384 L 218.600 231.447 208.600 231.177 C 203.100 231.029,197.700 230.714,196.600 230.478 C 194.343 229.992,192.955 229.888,193.296 230.229 M324.725 231.499 C 328.314 231.566,334.074 231.566,337.525 231.499 C 340.976 231.433,338.040 231.378,331.000 231.378 C 323.960 231.379,321.136 231.433,324.725 231.499 " stroke="none" fill="#6cb8d8" fill-rule="evenodd"></path></g></svg>